<?xml version="1.0" encoding="utf-8"?>
<!-- Generator: Adobe Illustrator 16.0.0, SVG Export Plug-In . SVG Version: 6.00 Build 0)  -->
<!DOCTYPE svg PUBLIC "-//W3C//DTD SVG 1.1//EN" "http://www.w3.org/Graphics/SVG/1.1/DTD/svg11.dtd">
<svg version="1.1" id="Layer_1" xmlns="http://www.w3.org/2000/svg" xmlns:xlink="http://www.w3.org/1999/xlink" x="0px" y="0px"
	 width="70px" height="70px" viewBox="0 0 70 70" enable-background="new 0 0 70 70" xml:space="preserve">
<path opacity="0.8" fill="#FFFFFF" d="M0,0v70h70V0H0z M34.091,58.085c-2.609,0-4.768-2.163-4.768-4.77
	c0-2.612,2.159-4.771,4.768-4.771c2.611,0,4.771,2.158,4.771,4.771C38.861,55.922,36.702,58.085,34.091,58.085z M37.668,42.813
	v1.192h-7.834v-1.762c0-9.082,9.764-10.104,9.764-16.917c0-3.064-2.213-4.484-4.654-4.484c-3.293,0-4.883,2.101-4.883,5.279v0.682
	h-7.833c0-8.006,4.995-12.887,12.942-12.887c6.416,0,12.605,3.52,12.605,11.354C47.775,35.034,37.668,36.058,37.668,42.813z"/>
</svg>
